<svg xmlns="http://www.w3.org/2000/svg" width="280" height="229" viewBox="0 0 280 229">
<g>
<path d="M 30.63 174.51 C29.44,175.29 25.88,176.23 22.73,176.60 L 17.00 177.28 L 17.00 172.75 C17.00,169.07 17.37,168.14 19.00,167.71 C20.87,167.22 21.00,166.35 21.00,154.68 C21.00,145.60 21.34,142.03 22.25,141.66 C23.25,141.26 23.25,141.14 22.25,141.08 C21.27,141.02 21.00,131.69 21.00,98.00 L 21.00 55.00 L 39.78 55.00 L 40.34 58.25 C40.66,60.04 41.22,64.78 41.59,68.78 C41.96,72.79 42.53,75.80 42.86,75.48 C43.18,75.15 43.91,70.53 44.47,65.19 L 45.50 55.50 L 54.76 55.21 L 64.02 54.92 L 63.76 93.14 L 63.50 131.35 L 58.00 132.63 C54.97,133.34 52.39,133.93 52.25,133.96 C52.11,133.98 52.00,124.10 52.00,112.00 C52.00,99.90 51.63,90.00 51.18,90.00 C50.73,90.00 49.80,98.21 49.12,108.25 C48.44,118.29 47.63,128.64 47.32,131.25 L 46.74 136.00 L 51.82 136.00 C58.29,136.00 61.52,137.49 64.11,141.67 C65.95,144.66 66.13,146.29 65.83,157.58 L 65.50 170.16 L 61.76 173.58 C58.53,176.54 57.34,177.00 52.92,177.00 C50.10,177.00 46.25,176.26 44.36,175.37 C38.93,172.79 38.00,169.87 38.00,155.42 L 38.00 142.74 L 41.65 139.29 L 45.30 135.85 L 41.65 136.54 C38.15,137.20 38.00,137.11 37.96,134.36 C37.86,127.10 34.25,85.92 33.66,85.33 C33.30,84.96 33.00,96.89 33.00,111.83 C33.00,138.33 32.95,139.00 31.00,139.00 C29.90,139.00 29.00,139.50 29.00,140.12 C29.00,140.73 29.85,141.01 30.89,140.74 C32.63,140.28 32.83,141.14 33.48,151.60 C34.38,165.95 33.55,172.59 30.63,174.51 ZM 147.00 175.25 C140.10,178.69 129.74,176.12 127.10,170.31 C125.59,167.01 125.61,124.64 127.12,121.68 C127.73,120.48 129.19,118.68 130.37,117.68 C132.50,115.87 132.49,115.86 129.20,116.27 C125.17,116.76 124.99,116.45 122.00,104.00 C120.75,98.78 119.35,93.82 118.89,93.00 C118.42,92.14 118.05,97.29 118.03,105.08 L 118.00 118.66 L 112.92 119.83 C110.13,120.47 107.43,121.00 106.92,121.00 C106.38,121.00 106.00,107.50 106.00,87.95 L 106.00 54.90 L 118.50 55.50 L 121.45 66.75 C123.08,72.94 124.77,78.00 125.20,78.00 C125.64,78.00 126.00,72.82 126.00,66.50 L 126.00 55.00 L 138.00 55.00 L 138.00 84.50 C138.00,103.50 137.64,114.00 137.00,114.00 C136.45,114.00 136.00,114.34 136.01,114.75 C136.01,115.16 138.23,115.54 140.95,115.60 C143.80,115.66 147.01,116.43 148.53,117.43 C153.34,120.58 154.00,124.07 154.00,146.22 C154.00,169.22 153.30,172.10 147.00,175.25 ZM 261.80 170.75 L 261.50 175.50 L 249.90 175.78 L 238.31 176.06 L 237.64 159.28 C237.28,150.05 237.00,123.56 237.02,100.40 C237.04,77.25 236.77,57.56 236.42,56.65 C235.85,55.17 237.04,55.00 247.96,55.00 L 260.13 55.00 L 259.82 57.75 C259.53,60.21 259.05,60.53 255.25,60.81 C251.28,61.09 251.00,61.31 251.00,64.06 C251.00,66.82 251.24,67.00 255.00,67.00 C258.78,67.00 259.00,67.17 259.00,70.00 C259.00,72.83 258.78,73.00 255.00,73.00 C251.10,73.00 251.00,73.08 251.00,76.50 L 251.00 80.00 L 256.07 80.00 C261.00,80.00 261.12,80.07 260.82,82.75 C260.59,84.72 259.86,85.59 258.25,85.82 C257.01,86.00 256.00,86.57 256.00,87.09 C256.00,87.61 257.15,87.75 258.55,87.40 L 261.10 86.76 L 260.80 93.63 L 260.50 100.50 L 256.25 100.81 L 252.00 101.11 L 252.00 127.00 L 260.00 127.00 L 260.00 136.00 L 252.00 136.00 L 252.00 166.00 L 262.11 166.00 ZM 95.71 123.04 C91.16,125.11 81.91,125.52 76.31,123.90 C74.56,123.39 72.20,121.80 71.06,120.35 C69.09,117.84 69.00,116.51 69.00,89.30 C69.00,72.48 69.40,60.11 69.99,59.02 C72.80,53.78 91.69,52.14 97.70,56.62 L 100.50 58.71 L 100.78 87.61 C100.93,103.50 100.81,117.54 100.49,118.81 C100.13,120.30 98.42,121.82 95.71,123.04 ZM 201.01 165.50 L 200.50 175.50 L 195.96 175.80 C193.47,175.96 191.10,175.77 190.71,175.38 C190.32,174.99 190.00,158.54 190.00,138.83 C190.00,110.84 190.27,103.00 191.25,102.99 C191.94,102.98 193.42,102.73 194.54,102.43 C196.39,101.93 197.02,103.32 201.54,118.13 L 206.50 134.39 L 206.77 116.80 L 207.05 99.21 L 210.77 98.55 C212.82,98.19 215.29,97.66 216.25,97.38 C217.90,96.90 218.00,99.22 218.00,136.48 L 218.00 176.10 L 212.27 175.80 L 206.54 175.50 L 204.81 168.00 C201.78,154.89 201.56,154.74 201.01,165.50 ZM 169.50 154.50 L 168.93 176.00 L 158.00 176.00 L 158.00 143.00 C158.00,112.24 158.12,110.00 159.75,109.99 C160.71,109.98 163.10,109.71 165.05,109.39 L 168.59 108.80 L 170.98 118.90 C172.29,124.46 173.73,129.00 174.18,129.00 C174.63,129.00 175.00,124.10 175.00,118.12 L 175.00 107.24 L 179.44 106.12 C181.89,105.50 184.36,105.00 184.94,105.00 C185.67,105.00 186.00,116.23 186.00,140.55 L 186.00 176.10 L 180.30 175.80 L 174.59 175.50 L 172.05 165.00 ZM 190.00 101.63 C185.51,102.97 179.62,103.29 177.25,102.34 C176.56,102.06 176.00,100.75 176.00,99.42 C176.00,97.67 175.45,97.00 174.02,97.00 C170.82,97.00 164.21,93.98 163.44,92.17 C163.05,91.25 162.51,84.05 162.24,76.17 C161.66,59.52 162.17,57.86 168.65,55.39 C174.56,53.13 187.00,53.86 190.79,56.70 C194.44,59.42 195.08,63.34 194.36,78.50 C193.70,92.52 192.79,95.00 188.29,95.00 C186.94,95.00 186.15,95.44 186.50,96.00 C186.84,96.55 188.92,97.00 191.13,97.00 C196.75,97.00 196.06,99.82 190.00,101.63 ZM 118.00 175.21 C118.00,175.64 113.72,176.00 108.50,176.00 C103.28,176.00 99.00,175.63 99.00,175.17 C99.00,174.72 97.43,163.61 95.51,150.50 C93.59,137.38 92.17,126.50 92.34,126.32 C93.17,125.50 104.13,123.79 104.73,124.39 C105.56,125.23 106.88,136.68 106.95,143.75 C106.98,146.64 107.45,149.00 108.00,149.00 C108.59,149.00 109.00,145.38 109.00,140.14 C109.00,135.27 109.28,129.27 109.61,126.80 L 110.23 122.33 L 116.86 120.74 C120.51,119.87 123.60,119.27 123.74,119.41 C123.88,119.55 122.64,131.98 121.00,147.04 C119.35,162.10 118.00,174.77 118.00,175.21 ZM 221.94 93.92 C215.21,95.36 212.78,95.21 205.15,92.83 C199.95,91.20 199.00,87.68 199.00,70.03 L 199.00 55.00 L 212.79 55.00 L 213.15 70.92 C213.34,79.67 213.81,87.14 214.18,87.52 C216.35,89.68 217.00,85.86 217.00,70.94 L 217.00 55.00 L 231.00 55.00 L 231.00 71.37 C231.00,90.71 230.44,92.10 221.94,93.92 ZM 234.76 134.62 L 234.50 175.50 L 228.96 175.79 C225.91,175.96 223.10,175.77 222.71,175.38 C222.32,174.99 222.00,157.01 222.00,135.44 C222.00,101.64 222.21,96.14 223.49,95.64 C224.31,95.33 227.24,94.77 230.00,94.41 L 235.02 93.74 ZM 92.00 167.11 L 92.00 176.00 L 70.00 176.00 L 70.00 131.04 L 72.25 130.57 C73.49,130.31 77.74,129.40 81.70,128.55 C85.66,127.70 89.39,127.00 90.00,127.00 C90.71,127.00 90.99,129.05 90.80,132.75 L 90.50 138.50 L 86.75 138.81 C83.03,139.12 83.00,139.15 83.00,143.56 C83.00,147.97 83.03,148.00 86.50,148.00 C89.98,148.00 90.00,148.02 90.00,152.50 C90.00,156.99 89.99,157.00 86.45,157.00 L 82.89 157.00 L 83.20 161.75 L 83.50 166.50 ZM 154.75 109.88 C149.66,111.75 146.96,112.05 146.54,110.77 C146.31,110.07 145.64,100.72 145.05,90.00 C144.47,79.28 143.72,67.01 143.39,62.75 L 142.79 55.00 L 157.00 55.00 L 157.00 109.05 ZM 84.05 118.09 C86.51,122.69 87.00,117.90 87.00,89.44 C87.00,60.67 86.95,60.00 85.00,60.00 C83.05,60.00 83.00,60.67 83.00,88.07 C83.00,105.76 83.39,116.86 84.05,118.09 ZM 138.67 168.33 C141.12,170.79 142.00,166.21 142.00,151.03 C142.00,134.08 141.01,124.00 139.35,124.00 C138.26,124.00 138.00,128.14 138.00,145.83 C138.00,157.84 138.30,167.97 138.67,168.33 ZM 176.61 90.42 C176.94,91.29 177.84,92.00 178.61,92.00 C179.74,92.00 180.00,89.01 180.00,76.00 C180.00,60.67 179.92,60.00 178.00,60.00 C176.09,60.00 176.00,60.67 176.00,74.42 C176.00,82.35 176.27,89.55 176.61,90.42 ZM 50.67 168.33 C53.12,170.79 54.00,167.67 54.00,156.50 C54.00,146.32 53.52,144.00 51.39,144.00 C50.28,144.00 50.00,146.39 50.00,155.83 C50.00,162.34 50.30,167.97 50.67,168.33 Z" fill="rgb(0,0,0)"/>
<path d="M 0.00 114.50 L 0.00 0.00 L 140.00 0.00 L 280.00 0.00 L 280.00 114.50 L 280.00 229.00 L 140.00 229.00 L 0.00 229.00 L 0.00 114.50 ZM 30.63 174.51 C33.55,172.59 34.38,165.95 33.48,151.60 C32.83,141.14 32.63,140.28 30.89,140.74 C29.85,141.01 29.00,140.73 29.00,140.12 C29.00,139.50 29.90,139.00 31.00,139.00 C32.95,139.00 33.00,138.33 33.00,111.83 C33.00,96.89 33.30,84.96 33.66,85.33 C34.25,85.92 37.86,127.10 37.96,134.36 C38.00,137.11 38.15,137.20 41.65,136.54 L 45.30 135.85 L 41.65 139.29 L 38.00 142.74 L 38.00 155.42 C38.00,169.87 38.93,172.79 44.36,175.37 C46.25,176.26 50.10,177.00 52.92,177.00 C57.34,177.00 58.53,176.54 61.76,173.58 L 65.50 170.16 L 65.83 157.58 C66.13,146.29 65.95,144.66 64.11,141.67 C61.52,137.49 58.29,136.00 51.82,136.00 L 46.74 136.00 L 47.32 131.25 C47.63,128.64 48.44,118.29 49.12,108.25 C49.80,98.21 50.73,90.00 51.18,90.00 C51.63,90.00 52.00,99.90 52.00,112.00 C52.00,124.10 52.11,133.98 52.25,133.96 C52.39,133.93 54.97,133.34 58.00,132.63 L 63.50 131.35 L 63.76 93.14 L 64.02 54.92 L 54.76 55.21 L 45.50 55.50 L 44.47 65.19 C43.91,70.53 43.18,75.15 42.86,75.48 C42.53,75.80 41.96,72.79 41.59,68.78 C41.22,64.78 40.66,60.04 40.34,58.25 L 39.78 55.00 L 30.39 55.00 L 21.00 55.00 L 21.00 98.00 C21.00,131.69 21.27,141.02 22.25,141.08 C23.25,141.14 23.25,141.26 22.25,141.66 C21.34,142.03 21.00,145.60 21.00,154.68 C21.00,166.35 20.87,167.22 19.00,167.71 C17.37,168.14 17.00,169.07 17.00,172.75 L 17.00 177.28 L 22.73 176.60 C25.88,176.23 29.44,175.29 30.63,174.51 ZM 147.00 175.25 C153.30,172.10 154.00,169.22 154.00,146.22 C154.00,124.07 153.34,120.58 148.53,117.43 C147.01,116.43 143.80,115.66 140.95,115.60 C138.23,115.54 136.01,115.16 136.01,114.75 C136.00,114.34 136.45,114.00 137.00,114.00 C137.64,114.00 138.00,103.50 138.00,84.50 L 138.00 55.00 L 132.00 55.00 L 126.00 55.00 L 126.00 66.50 C126.00,72.82 125.64,78.00 125.20,78.00 C124.77,78.00 123.08,72.94 121.45,66.75 L 118.50 55.50 L 112.25 55.20 L 106.00 54.90 L 106.00 87.95 C106.00,107.50 106.38,121.00 106.92,121.00 C107.43,121.00 110.13,120.47 112.92,119.83 L 118.00 118.66 L 118.03 105.08 C118.05,97.29 118.42,92.14 118.89,93.00 C119.35,93.82 120.75,98.78 122.00,104.00 C124.99,116.45 125.17,116.76 129.20,116.27 C132.49,115.86 132.50,115.87 130.37,117.68 C129.19,118.68 127.73,120.48 127.12,121.68 C125.61,124.64 125.59,167.01 127.10,170.31 C129.74,176.12 140.10,178.69 147.00,175.25 ZM 92.00 171.56 L 92.00 167.11 L 87.75 166.81 L 83.50 166.50 L 83.20 161.75 L 82.89 157.00 L 86.45 157.00 C89.99,157.00 90.00,156.99 90.00,152.50 C90.00,148.02 89.98,148.00 86.50,148.00 C83.03,148.00 83.00,147.97 83.00,143.56 C83.00,139.15 83.03,139.12 86.75,138.81 L 90.50 138.50 L 90.80 132.75 C90.99,129.05 90.71,127.00 90.00,127.00 C89.39,127.00 85.66,127.70 81.70,128.55 C77.74,129.40 73.49,130.31 72.25,130.57 L 70.00 131.04 L 70.00 153.52 L 70.00 176.00 L 81.00 176.00 L 92.00 176.00 L 92.00 171.56 ZM 118.00 175.21 C118.00,174.77 119.35,162.10 121.00,147.04 C122.64,131.98 123.88,119.55 123.74,119.41 C123.60,119.27 120.51,119.87 116.86,120.74 L 110.23 122.33 L 109.61 126.80 C109.28,129.27 109.00,135.27 109.00,140.14 C109.00,145.38 108.59,149.00 108.00,149.00 C107.45,149.00 106.98,146.64 106.95,143.75 C106.88,136.68 105.56,125.23 104.73,124.39 C104.13,123.79 93.17,125.50 92.34,126.32 C92.17,126.50 93.59,137.38 95.51,150.50 C97.43,163.61 99.00,174.72 99.00,175.17 C99.00,175.63 103.28,176.00 108.50,176.00 C113.72,176.00 118.00,175.64 118.00,175.21 ZM 169.22 165.25 L 169.50 154.50 L 172.05 165.00 L 174.59 175.50 L 180.30 175.80 L 186.00 176.10 L 186.00 140.55 C186.00,116.23 185.67,105.00 184.94,105.00 C184.36,105.00 181.89,105.50 179.44,106.12 L 175.00 107.24 L 175.00 118.12 C175.00,124.10 174.63,129.00 174.18,129.00 C173.73,129.00 172.29,124.46 170.98,118.90 L 168.59 108.80 L 165.05 109.39 C163.10,109.71 160.71,109.98 159.75,109.99 C158.12,110.00 158.00,112.24 158.00,143.00 L 158.00 176.00 L 163.47 176.00 L 168.93 176.00 L 169.22 165.25 ZM 201.01 165.50 C201.56,154.74 201.78,154.89 204.81,168.00 L 206.54 175.50 L 212.27 175.80 L 218.00 176.10 L 218.00 136.48 C218.00,99.22 217.90,96.90 216.25,97.38 C215.29,97.66 212.82,98.19 210.77,98.55 L 207.05 99.21 L 206.77 116.80 L 206.50 134.39 L 201.54 118.13 C197.02,103.32 196.39,101.93 194.54,102.43 C193.42,102.73 191.94,102.98 191.25,102.99 C190.27,103.00 190.00,110.84 190.00,138.83 C190.00,158.54 190.32,174.99 190.71,175.38 C191.10,175.77 193.47,175.96 195.96,175.80 L 200.50 175.50 L 201.01 165.50 ZM 234.76 134.62 L 235.02 93.74 L 230.00 94.41 C227.24,94.77 224.31,95.33 223.49,95.64 C222.21,96.14 222.00,101.64 222.00,135.44 C222.00,157.01 222.32,174.99 222.71,175.38 C223.10,175.77 225.91,175.96 228.96,175.79 L 234.50 175.50 L 234.76 134.62 ZM 261.80 170.75 L 262.11 166.00 L 257.05 166.00 L 252.00 166.00 L 252.00 151.00 L 252.00 136.00 L 256.00 136.00 L 260.00 136.00 L 260.00 131.50 L 260.00 127.00 L 256.00 127.00 L 252.00 127.00 L 252.00 114.06 L 252.00 101.11 L 256.25 100.81 L 260.50 100.50 L 260.80 93.63 L 261.10 86.76 L 258.55 87.40 C257.15,87.75 256.00,87.61 256.00,87.09 C256.00,86.57 257.01,86.00 258.25,85.82 C259.86,85.59 260.59,84.72 260.82,82.75 C261.12,80.07 261.00,80.00 256.07,80.00 L 251.00 80.00 L 251.00 76.50 C251.00,73.08 251.10,73.00 255.00,73.00 C258.78,73.00 259.00,72.83 259.00,70.00 C259.00,67.17 258.78,67.00 255.00,67.00 C251.24,67.00 251.00,66.82 251.00,64.06 C251.00,61.31 251.28,61.09 255.25,60.81 C259.05,60.53 259.53,60.21 259.82,57.75 L 260.13 55.00 L 247.96 55.00 C237.04,55.00 235.85,55.17 236.42,56.65 C236.77,57.56 237.04,77.25 237.02,100.40 C237.00,123.56 237.28,150.05 237.64,159.28 L 238.31 176.06 L 249.90 175.78 L 261.50 175.50 L 261.80 170.75 ZM 95.71 123.04 C98.42,121.82 100.13,120.30 100.49,118.81 C100.81,117.54 100.93,103.50 100.78,87.61 L 100.50 58.71 L 97.70 56.62 C91.69,52.14 72.80,53.78 69.99,59.02 C69.40,60.11 69.00,72.48 69.00,89.30 C69.00,116.51 69.09,117.84 71.06,120.35 C72.20,121.80 74.56,123.39 76.31,123.90 C81.91,125.52 91.16,125.11 95.71,123.04 ZM 154.75 109.88 L 157.00 109.05 L 157.00 82.02 L 157.00 55.00 L 149.90 55.00 L 142.79 55.00 L 143.39 62.75 C143.72,67.01 144.47,79.28 145.05,90.00 C145.64,100.72 146.31,110.07 146.54,110.77 C146.96,112.05 149.66,111.75 154.75,109.88 ZM 190.00 101.63 C196.06,99.82 196.75,97.00 191.13,97.00 C188.92,97.00 186.84,96.55 186.50,96.00 C186.15,95.44 186.94,95.00 188.29,95.00 C192.79,95.00 193.70,92.52 194.36,78.50 C195.08,63.34 194.44,59.42 190.79,56.70 C187.00,53.86 174.56,53.13 168.65,55.39 C162.17,57.86 161.66,59.52 162.24,76.17 C162.51,84.05 163.05,91.25 163.44,92.17 C164.21,93.98 170.82,97.00 174.02,97.00 C175.45,97.00 176.00,97.67 176.00,99.42 C176.00,100.75 176.56,102.06 177.25,102.34 C179.62,103.29 185.51,102.97 190.00,101.63 ZM 221.94 93.92 C230.44,92.10 231.00,90.71 231.00,71.37 L 231.00 55.00 L 224.00 55.00 L 217.00 55.00 L 217.00 70.94 C217.00,85.86 216.35,89.68 214.18,87.52 C213.81,87.14 213.34,79.67 213.15,70.92 L 212.79 55.00 L 205.90 55.00 L 199.00 55.00 L 199.00 70.03 C199.00,87.68 199.95,91.20 205.15,92.83 C212.78,95.21 215.21,95.36 221.94,93.92 ZM 50.67 168.33 C50.30,167.97 50.00,162.34 50.00,155.83 C50.00,146.39 50.28,144.00 51.39,144.00 C53.52,144.00 54.00,146.32 54.00,156.50 C54.00,167.67 53.12,170.79 50.67,168.33 ZM 138.67 168.33 C138.30,167.97 138.00,157.84 138.00,145.83 C138.00,128.14 138.26,124.00 139.35,124.00 C141.01,124.00 142.00,134.08 142.00,151.03 C142.00,166.21 141.12,170.79 138.67,168.33 ZM 84.05 118.09 C83.39,116.86 83.00,105.76 83.00,88.07 C83.00,60.67 83.05,60.00 85.00,60.00 C86.95,60.00 87.00,60.67 87.00,89.44 C87.00,117.90 86.51,122.69 84.05,118.09 ZM 176.61 90.42 C176.27,89.55 176.00,82.35 176.00,74.42 C176.00,60.67 176.09,60.00 178.00,60.00 C179.92,60.00 180.00,60.67 180.00,76.00 C180.00,89.01 179.74,92.00 178.61,92.00 C177.84,92.00 176.94,91.29 176.61,90.42 Z" fill="rgb(254,254,254)"/>
</g>
</svg>